# xmcd
#
# Track frame offsets:
#	150
#	15962
#	32545
#	51492
#	67052
#	81660
#	95050
#	110887
#	124730
#	140045
#
# Disc length: 2084 seconds
#
# Revision: 0
# Processed by: cddbd v1.4PL0 Copyright (c) Steve Scherf et al.
# Submitted via: EasyCDDAExtractor 5.0.5.1
#
DISCID=9508220a
DTITLE=Joe Diffie - A Night To Remember
DYEAR=1999
DGENRE=Country
TTITLE0=A Night To Remember
TTITLE1=You Can't Go Home
TTITLE2=I'm The Only Thing I'll Hold Against You
TTITLE3=The Quittin' Kind
TTITLE4=Better Off Gone
TTITLE5=It's Always Somethin'
TTITLE6=Are We Even Yet
TTITLE7=My Heart's In Over My Head
TTITLE8=Not In This Lifetime
TTITLE9=Don't Our Love Look Natural
EXTD=YEAR: 1994 ID3G: 17
EXTT0=
EXTT1=
EXTT2=
EXTT3=
EXTT4=
EXTT5=
EXTT6=
EXTT7=
EXTT8=
EXTT9=
PLAYORDER=
